<mxfile host="app.diagrams.net" agent="Mozilla/5.0 (Windows NT 10.0; Win64; x64) AppleWebKit/537.36 (KHTML, like Gecko) Chrome/135.0.0.0 Safari/537.36 Edg/135.0.0.0" version="26.2.13">
  <diagram name="PÃ¡gina-1" id="adGkpcH6GIciYSW0v65J">
    <mxGraphModel dx="1973" dy="1124" grid="1" gridSize="10" guides="1" tooltips="1" connect="1" arrows="1" fold="1" page="1" pageScale="1" pageWidth="827" pageHeight="1169" math="0" shadow="0">
      <root>
        <mxCell id="0" />
        <mxCell id="1" parent="0" />
        <mxCell id="LTt832kXaYGWxu2MOY3Y-47" value="" style="rounded=0;html=1;jettySize=auto;orthogonalLoop=1;fontSize=11;endArrow=block;endFill=0;endSize=8;strokeWidth=1;shadow=0;labelBackgroundColor=none;edgeStyle=orthogonalEdgeStyle;" edge="1" parent="1" source="LTt832kXaYGWxu2MOY3Y-48" target="LTt832kXaYGWxu2MOY3Y-50">
          <mxGeometry relative="1" as="geometry" />
        </mxCell>
        <mxCell id="LTt832kXaYGWxu2MOY3Y-48" value="Reinicio variables:&lt;div&gt;-PER=0&lt;/div&gt;&lt;div&gt;-LARX = LAR - N&lt;/div&gt;&lt;div&gt;Y=0x100&lt;/div&gt;" style="rounded=1;whiteSpace=wrap;html=1;fontSize=12;glass=0;strokeWidth=1;shadow=0;fillColor=#d5e8d4;strokeColor=#82b366;" vertex="1" parent="1">
          <mxGeometry x="250" y="1050" width="120" height="80" as="geometry" />
        </mxCell>
        <mxCell id="LTt832kXaYGWxu2MOY3Y-49" value="C positivo" style="edgeStyle=orthogonalEdgeStyle;rounded=0;html=1;jettySize=auto;orthogonalLoop=1;fontSize=11;endArrow=block;endFill=0;endSize=8;strokeWidth=1;shadow=0;labelBackgroundColor=none;" edge="1" parent="1" source="LTt832kXaYGWxu2MOY3Y-50" target="LTt832kXaYGWxu2MOY3Y-51">
          <mxGeometry y="10" relative="1" as="geometry">
            <mxPoint as="offset" />
          </mxGeometry>
        </mxCell>
        <mxCell id="LTt832kXaYGWxu2MOY3Y-50" value="(Y) - (Y+1) = C" style="rhombus;whiteSpace=wrap;html=1;shadow=0;fontFamily=Helvetica;fontSize=12;align=center;strokeWidth=1;spacing=6;spacingTop=-4;fillColor=#fff2cc;strokeColor=#d6b656;" vertex="1" parent="1">
          <mxGeometry x="260" y="1180" width="100" height="80" as="geometry" />
        </mxCell>
        <mxCell id="LTt832kXaYGWxu2MOY3Y-51" value="-Permuto (Y) y (Y+1)&lt;div&gt;-PER++&lt;/div&gt;" style="rounded=1;whiteSpace=wrap;html=1;fontSize=12;glass=0;strokeWidth=1;shadow=0;fillColor=#fff2cc;strokeColor=#d6b656;" vertex="1" parent="1">
          <mxGeometry x="420" y="1200" width="120" height="40" as="geometry" />
        </mxCell>
        <mxCell id="LTt832kXaYGWxu2MOY3Y-52" value="C negativo" style="rounded=0;html=1;jettySize=auto;orthogonalLoop=1;fontSize=11;endArrow=block;endFill=0;endSize=8;strokeWidth=1;shadow=0;labelBackgroundColor=none;edgeStyle=orthogonalEdgeStyle;exitX=0.5;exitY=1;exitDx=0;exitDy=0;" edge="1" parent="1" source="LTt832kXaYGWxu2MOY3Y-50" target="LTt832kXaYGWxu2MOY3Y-54">
          <mxGeometry x="-0.8889" y="40" relative="1" as="geometry">
            <mxPoint as="offset" />
            <mxPoint x="310" y="1380" as="sourcePoint" />
          </mxGeometry>
        </mxCell>
        <mxCell id="LTt832kXaYGWxu2MOY3Y-53" value="" style="edgeStyle=orthogonalEdgeStyle;rounded=0;html=1;jettySize=auto;orthogonalLoop=1;fontSize=11;endArrow=block;endFill=0;endSize=8;strokeWidth=1;shadow=0;labelBackgroundColor=none;exitX=0.5;exitY=1;exitDx=0;exitDy=0;entryX=0.75;entryY=0;entryDx=0;entryDy=0;" edge="1" parent="1" source="LTt832kXaYGWxu2MOY3Y-51" target="LTt832kXaYGWxu2MOY3Y-54">
          <mxGeometry y="10" relative="1" as="geometry">
            <mxPoint as="offset" />
            <mxPoint x="580.03" y="1360" as="sourcePoint" />
            <mxPoint x="480" y="1370" as="targetPoint" />
          </mxGeometry>
        </mxCell>
        <mxCell id="LTt832kXaYGWxu2MOY3Y-54" value="LARX--" style="rounded=1;whiteSpace=wrap;html=1;fontSize=12;glass=0;strokeWidth=1;shadow=0;fillColor=#fff2cc;strokeColor=#d6b656;" vertex="1" parent="1">
          <mxGeometry x="250" y="1360" width="120" height="40" as="geometry" />
        </mxCell>
        <mxCell id="LTt832kXaYGWxu2MOY3Y-55" value="LARX = 0?" style="rhombus;whiteSpace=wrap;html=1;shadow=0;fontFamily=Helvetica;fontSize=12;align=center;strokeWidth=1;spacing=6;spacingTop=-4;fillColor=#fff2cc;strokeColor=#d6b656;" vertex="1" parent="1">
          <mxGeometry x="255" y="1430" width="110" height="90" as="geometry" />
        </mxCell>
        <mxCell id="LTt832kXaYGWxu2MOY3Y-56" value="" style="rounded=0;html=1;jettySize=auto;orthogonalLoop=1;fontSize=11;endArrow=block;endFill=0;endSize=8;strokeWidth=1;shadow=0;labelBackgroundColor=none;edgeStyle=orthogonalEdgeStyle;exitX=0.5;exitY=1;exitDx=0;exitDy=0;entryX=0.5;entryY=0;entryDx=0;entryDy=0;" edge="1" parent="1" source="LTt832kXaYGWxu2MOY3Y-54" target="LTt832kXaYGWxu2MOY3Y-55">
          <mxGeometry x="-0.8889" y="40" relative="1" as="geometry">
            <mxPoint as="offset" />
            <mxPoint x="420" y="1410" as="sourcePoint" />
            <mxPoint x="420" y="1510" as="targetPoint" />
          </mxGeometry>
        </mxCell>
        <mxCell id="LTt832kXaYGWxu2MOY3Y-57" value="" style="rounded=0;html=1;jettySize=auto;orthogonalLoop=1;fontSize=11;endArrow=block;endFill=0;endSize=8;strokeWidth=1;shadow=0;labelBackgroundColor=none;edgeStyle=orthogonalEdgeStyle;exitX=0.5;exitY=1;exitDx=0;exitDy=0;entryX=0.5;entryY=0;entryDx=0;entryDy=0;" edge="1" parent="1">
          <mxGeometry x="-0.8889" y="40" relative="1" as="geometry">
            <mxPoint as="offset" />
            <mxPoint x="309.65999999999997" y="1520" as="sourcePoint" />
            <mxPoint x="309.65999999999997" y="1550" as="targetPoint" />
          </mxGeometry>
        </mxCell>
        <mxCell id="LTt832kXaYGWxu2MOY3Y-58" value="no" style="edgeLabel;html=1;align=center;verticalAlign=middle;resizable=0;points=[];" vertex="1" connectable="0" parent="LTt832kXaYGWxu2MOY3Y-57">
          <mxGeometry x="-0.2429" relative="1" as="geometry">
            <mxPoint x="-20" as="offset" />
          </mxGeometry>
        </mxCell>
        <mxCell id="LTt832kXaYGWxu2MOY3Y-59" value="Y++" style="rounded=1;whiteSpace=wrap;html=1;fillColor=#fff2cc;strokeColor=#d6b656;" vertex="1" parent="1">
          <mxGeometry x="270" y="1550" width="80" height="40" as="geometry" />
        </mxCell>
        <mxCell id="LTt832kXaYGWxu2MOY3Y-60" value="" style="rounded=0;html=1;jettySize=auto;orthogonalLoop=1;fontSize=11;endArrow=block;endFill=0;endSize=8;strokeWidth=1;shadow=0;labelBackgroundColor=none;edgeStyle=orthogonalEdgeStyle;exitX=0;exitY=0.5;exitDx=0;exitDy=0;entryX=0;entryY=0.5;entryDx=0;entryDy=0;" edge="1" parent="1" source="LTt832kXaYGWxu2MOY3Y-59" target="LTt832kXaYGWxu2MOY3Y-50">
          <mxGeometry x="-0.8889" y="40" relative="1" as="geometry">
            <mxPoint as="offset" />
            <mxPoint x="190" y="1530" as="sourcePoint" />
            <mxPoint x="190" y="1560" as="targetPoint" />
            <Array as="points">
              <mxPoint x="210" y="1570" />
              <mxPoint x="210" y="1220" />
            </Array>
          </mxGeometry>
        </mxCell>
        <mxCell id="LTt832kXaYGWxu2MOY3Y-61" value="N++" style="rounded=1;whiteSpace=wrap;html=1;" vertex="1" parent="1">
          <mxGeometry x="430" y="1510" width="40" height="30" as="geometry" />
        </mxCell>
        <mxCell id="LTt832kXaYGWxu2MOY3Y-62" value="" style="rounded=0;html=1;jettySize=auto;orthogonalLoop=1;fontSize=11;endArrow=block;endFill=0;endSize=8;strokeWidth=1;shadow=0;labelBackgroundColor=none;edgeStyle=orthogonalEdgeStyle;exitX=1;exitY=0.5;exitDx=0;exitDy=0;entryX=0.5;entryY=0;entryDx=0;entryDy=0;" edge="1" parent="1" source="LTt832kXaYGWxu2MOY3Y-55" target="LTt832kXaYGWxu2MOY3Y-61">
          <mxGeometry x="-0.8889" y="40" relative="1" as="geometry">
            <mxPoint as="offset" />
            <mxPoint x="440" y="1450" as="sourcePoint" />
            <mxPoint x="440" y="1480" as="targetPoint" />
          </mxGeometry>
        </mxCell>
        <mxCell id="LTt832kXaYGWxu2MOY3Y-63" value="si" style="edgeLabel;html=1;align=center;verticalAlign=middle;resizable=0;points=[];" vertex="1" connectable="0" parent="LTt832kXaYGWxu2MOY3Y-62">
          <mxGeometry x="0.0954" y="-2" relative="1" as="geometry">
            <mxPoint x="-55" y="-17" as="offset" />
          </mxGeometry>
        </mxCell>
        <mxCell id="LTt832kXaYGWxu2MOY3Y-64" value="PER=0?" style="rhombus;whiteSpace=wrap;html=1;" vertex="1" parent="1">
          <mxGeometry x="385" y="1600" width="130" height="80" as="geometry" />
        </mxCell>
        <mxCell id="LTt832kXaYGWxu2MOY3Y-65" value="" style="rounded=0;html=1;jettySize=auto;orthogonalLoop=1;fontSize=11;endArrow=block;endFill=0;endSize=8;strokeWidth=1;shadow=0;labelBackgroundColor=none;edgeStyle=orthogonalEdgeStyle;exitX=0.5;exitY=1;exitDx=0;exitDy=0;entryX=0.5;entryY=0;entryDx=0;entryDy=0;" edge="1" parent="1" source="LTt832kXaYGWxu2MOY3Y-61" target="LTt832kXaYGWxu2MOY3Y-64">
          <mxGeometry x="-0.8889" y="40" relative="1" as="geometry">
            <mxPoint as="offset" />
            <mxPoint x="350" y="1620" as="sourcePoint" />
            <mxPoint x="350" y="1650" as="targetPoint" />
          </mxGeometry>
        </mxCell>
        <mxCell id="LTt832kXaYGWxu2MOY3Y-66" value="FIN" style="rounded=1;whiteSpace=wrap;html=1;fillColor=#f8cecc;strokeColor=#b85450;" vertex="1" parent="1">
          <mxGeometry x="425" y="1710" width="50" height="30" as="geometry" />
        </mxCell>
        <mxCell id="LTt832kXaYGWxu2MOY3Y-67" value="" style="rounded=0;html=1;jettySize=auto;orthogonalLoop=1;fontSize=11;endArrow=block;endFill=0;endSize=8;strokeWidth=1;shadow=0;labelBackgroundColor=none;edgeStyle=orthogonalEdgeStyle;exitX=0.5;exitY=1;exitDx=0;exitDy=0;entryX=0.5;entryY=0;entryDx=0;entryDy=0;" edge="1" parent="1" source="LTt832kXaYGWxu2MOY3Y-64" target="LTt832kXaYGWxu2MOY3Y-66">
          <mxGeometry x="-0.8889" y="40" relative="1" as="geometry">
            <mxPoint as="offset" />
            <mxPoint x="365" y="1680" as="sourcePoint" />
            <mxPoint x="365" y="1710" as="targetPoint" />
          </mxGeometry>
        </mxCell>
        <mxCell id="LTt832kXaYGWxu2MOY3Y-68" value="si" style="edgeLabel;html=1;align=center;verticalAlign=middle;resizable=0;points=[];" vertex="1" connectable="0" parent="LTt832kXaYGWxu2MOY3Y-67">
          <mxGeometry x="-0.2416" y="-3" relative="1" as="geometry">
            <mxPoint x="-7" as="offset" />
          </mxGeometry>
        </mxCell>
        <mxCell id="LTt832kXaYGWxu2MOY3Y-69" value="" style="rounded=0;html=1;jettySize=auto;orthogonalLoop=1;fontSize=11;endArrow=block;endFill=0;endSize=8;strokeWidth=1;shadow=0;labelBackgroundColor=none;edgeStyle=orthogonalEdgeStyle;exitX=1;exitY=0.5;exitDx=0;exitDy=0;entryX=1;entryY=0.5;entryDx=0;entryDy=0;" edge="1" parent="1" source="LTt832kXaYGWxu2MOY3Y-64" target="LTt832kXaYGWxu2MOY3Y-48">
          <mxGeometry x="-0.8889" y="40" relative="1" as="geometry">
            <mxPoint as="offset" />
            <mxPoint x="570" y="1580" as="sourcePoint" />
            <mxPoint x="570" y="1610" as="targetPoint" />
            <Array as="points">
              <mxPoint x="570" y="1640" />
              <mxPoint x="570" y="1090" />
            </Array>
          </mxGeometry>
        </mxCell>
        <mxCell id="LTt832kXaYGWxu2MOY3Y-70" value="no" style="edgeLabel;html=1;align=center;verticalAlign=middle;resizable=0;points=[];" vertex="1" connectable="0" parent="LTt832kXaYGWxu2MOY3Y-69">
          <mxGeometry x="-0.9207" y="2" relative="1" as="geometry">
            <mxPoint x="-31" y="-18" as="offset" />
          </mxGeometry>
        </mxCell>
        <mxCell id="LTt832kXaYGWxu2MOY3Y-71" value="Loop1" style="text;html=1;align=center;verticalAlign=middle;resizable=0;points=[];autosize=1;strokeColor=#82b366;fillColor=#d5e8d4;" vertex="1" parent="1">
          <mxGeometry x="580" y="1100" width="60" height="30" as="geometry" />
        </mxCell>
        <mxCell id="LTt832kXaYGWxu2MOY3Y-72" value="Loop2" style="text;html=1;align=center;verticalAlign=middle;resizable=0;points=[];autosize=1;strokeColor=#d6b656;fillColor=#fff2cc;" vertex="1" parent="1">
          <mxGeometry x="140" y="1330" width="60" height="30" as="geometry" />
        </mxCell>
      </root>
    </mxGraphModel>
  </diagram>
</mxfile>
